<svg width="41" height="41" viewBox="0 0 40 41" fill="none" xmlns="http://www.w3.org/2000/svg">
<path fill-rule="evenodd" clip-rule="evenodd" d="M6.66693 3.4375H33.3336C35.3955 3.4375 37.0669 5.10897 37.0669 7.17083V33.8375C37.0669 35.8994 35.3955 37.5708 33.3336 37.5708H6.66693C4.60507 37.5708 2.93359 35.8994 2.93359 33.8375V7.17084C2.93359 5.10898 4.60506 3.4375 6.66693 3.4375ZM6.66693 5.8375C5.93055 5.8375 5.33359 6.43446 5.33359 7.17084V23.4435L10.1366 18.6405C10.2804 18.4967 10.4765 18.4174 10.6798 18.4209C10.8832 18.4244 11.0764 18.5104 11.2152 18.659L20.9853 29.1252L28.8033 21.3072C28.9439 21.1665 29.1347 21.0875 29.3336 21.0875C29.5325 21.0875 29.7233 21.1665 29.8639 21.3072L34.6669 26.1102V7.17083C34.6669 6.43445 34.07 5.8375 33.3336 5.8375H6.66693ZM5.33359 33.8375V25.5648L10.6484 20.25L20.4145 30.7119L24.4502 35.1708H6.66693C5.93055 35.1708 5.33359 34.5739 5.33359 33.8375ZM33.3336 35.1708H26.4734L22.0016 30.2301L29.3336 22.8982L34.6669 28.2315V33.8375C34.6669 34.5739 34.07 35.1708 33.3336 35.1708ZM17.2815 15.1813C17.2815 13.6797 18.4987 12.4625 20.0003 12.4625C21.5018 12.4625 22.719 13.6797 22.719 15.1813C22.719 16.6828 21.5018 17.9 20.0003 17.9C18.4987 17.9 17.2815 16.6828 17.2815 15.1813ZM20.0003 10.9625C17.6703 10.9625 15.7815 12.8513 15.7815 15.1813C15.7815 17.5112 17.6703 19.4 20.0003 19.4C22.3302 19.4 24.219 17.5112 24.219 15.1813C24.219 12.8513 22.3302 10.9625 20.0003 10.9625Z" fill="#F9FAFC"/>
</svg>
