<svg width="1920" height="500" viewBox="0 0 1920 500" fill="none" xmlns="http://www.w3.org/2000/svg">
<g clip-path="url(#clip0_1575_44240)">
<rect width="1920" height="500" fill="#F64A19"/>
<path d="M1072.41 343.648L1092.43 320.443H1124L1093.2 355.639L1121.07 398H1093.05L1076.41 372.77L1072.41 377.598V398H1049V284H1072.41V343.648Z" fill="black"/>
<path d="M776.12 395.566C810.415 427.741 878.818 442.97 973.862 427.195C1100.45 406.185 1182.03 331.318 1148.41 269.813C1122.46 222.351 1021.95 223.731 933.493 245.672M776.12 395.566C764.737 384.888 757.112 372.343 753.517 358.445C741.579 312.3 799.981 248.879 933.493 245.672M776.12 395.566C759.209 351.915 788.745 300.54 860.384 269.813C882.203 260.455 907.321 252.163 933.493 245.672M776.12 395.566C781.768 410.147 792.599 423.866 808.774 435.665C856.743 470.658 970.189 477.979 1070.47 437.581M933.493 245.672C961.348 245.003 992.472 246.955 1026.91 252.231" stroke="white" stroke-width="4.13024"/>
<g opacity="0.2">
<path d="M1498.1 262.337C1454.93 270.444 1410.91 201.53 1410.91 201.53C1410.91 201.53 1386.05 242.065 1358.99 240.372C1333.17 238.756 1314.21 199.273 1314.21 199.273C1314.21 199.273 1195.54 269.444 1154.2 224.524C1095.69 160.937 1250.6 96.8186 1250.6 96.8186C1250.6 96.8186 1149.01 67.3708 1154.2 29.7629C1162.39 -29.5835 1314.34 17.4752 1314.34 17.4752C1314.34 17.4752 1295.98 -58.7526 1335.13 -75.6547C1380.74 -95.3434 1436 -5.01578 1436 -5.01578C1436 -5.01578 1594.88 -129.041 1660.66 -75.6547C1724.28 -24.0095 1581.61 92.7034 1581.61 92.7034C1581.61 92.7034 1674.09 125.937 1660.66 161.565C1646.41 199.338 1540.22 167.903 1540.22 167.903C1540.22 167.903 1543.82 253.753 1498.1 262.337Z" stroke="white" stroke-width="20"/>
</g>
<g opacity="0.2">
<path d="M419.84 325.331C375.603 318.697 367.863 413.947 323.63 407.285C296.495 403.199 295.158 360.759 267.996 364.668C242.087 368.396 247.644 401.74 226.264 416.734C167.516 457.936 94.325 304.115 48.3419 369.394C-18.4402 464.2 209.379 469.839 170.673 543.173C149.545 583.203 65.6577 562.275 73.2982 606.823C84.7887 673.819 198.469 582.915 241.627 633.189C270.49 666.811 229.499 725.236 270.412 742.623C318.07 762.878 317.712 669.524 366.256 651.462C452.825 619.252 513.869 809.3 582.277 747.58C650.847 685.713 470.865 610.445 504.964 524.928C521.504 483.446 603.228 483.607 586.686 442.125C569.149 398.146 497.043 463.787 456.905 438.283C417.01 412.934 466.68 332.356 419.84 325.331Z" stroke="white" stroke-width="60" stroke-dasharray="4 4"/>
</g>
<path d="M42.4189 253.902C42.4189 253.902 -23.273 291.029 0.164865 341.691C6.0795 354.476 16.5146 361.504 28.5262 364.306M28.5262 364.306C64.1131 372.606 113.539 343.806 100.249 317.692C84.9645 287.658 26.7583 319.068 28.5262 364.306ZM28.5262 364.306C28.8143 371.678 30.6953 379.418 34.6144 387.318C45.128 408.513 63.5162 417.424 81.6858 418.829M81.6858 418.829C111.849 421.16 141.411 402.802 133.343 385.61C121.918 361.266 79.0368 386.932 81.6858 418.829ZM81.6858 418.829C82.0345 423.028 83.1724 427.336 85.2752 431.651C103.35 468.745 152.302 446.545 152.302 446.545" stroke="white" stroke-width="15"/>
<path d="M660.675 326.3L596.479 326.872M658.685 356.273C634.694 361.844 544.836 382.708 498.66 393.43M673.679 382.303L590.101 425.88" stroke="#6F5AF1" stroke-width="31.1788"/>
<path d="M1748.76 216.113L1645.32 266.893C1645.32 266.893 1779 152.131 1731.12 110.888C1704.36 87.833 1647.19 150.907 1647.19 150.907M1647.19 150.907L1698.97 150.051M1647.19 150.907L1646.44 99.1129" stroke="white" stroke-width="16"/>
<g opacity="0.1">
<path d="M238.58 -70.5615L241.151 61.978M241.151 61.978L230.449 192.163M241.151 61.978L77.7687 53.1714M241.151 61.978L403.292 99.8438M241.151 61.978L422.95 -91.8668M241.151 61.978L362.188 272.786M241.151 61.978L127.975 181.797M241.151 61.978L102.606 -86.8695" stroke="white" stroke-width="50"/>
</g>
<path d="M1232.62 153.601L1307.37 146.624M1230.9 116.973L1403.6 62.6758M1218.5 92.1718L1332.96 36.0824" stroke="#6F5AF1" stroke-width="31.1788"/>
<g opacity="0.1">
<path d="M1730 304.952L1710.8 205M1764.4 278.459L1776.8 228.282M1764.4 529.343L1790.8 659M1730 569.083L1721.6 623.274M1843.6 371.472L1920 331.446M1632.4 371.472L1546 316.995M1594.8 391.658H1554M1651.6 491.61L1577.6 553.829M1852 471.711L1910.8 501.674M1741.31 371.472L1803.17 316.995L1784.72 401.98L1859.6 423.226L1784.72 444.473L1803.17 501.674L1747.28 471.711L1693.01 545.801L1699.53 457.547L1594.8 439.025L1683.6 401.98L1666.43 321.353L1741.31 371.472Z" stroke="white" stroke-width="30"/>
</g>
<path d="M453.618 482.174C453.618 482.174 464.185 438.436 481.595 444.37C499.005 450.305 459.567 485.518 476.602 492.449C498.277 501.268 494.88 446.882 514.241 454.516C532.259 461.62 490.014 496.872 508.018 504.754C531.557 515.057 526.444 456.183 547.862 465.891C560.588 471.66 522.584 510.031 540.208 516.889C559.115 524.247 568.585 473.065 568.585 473.065" stroke="white" stroke-width="8"/>
<path d="M541.15 117.091C541.15 117.091 528.677 91.5241 513.381 86.213C482.467 75.4795 468.872 157.496 468.872 157.496C468.872 157.496 455.101 127.976 438.062 126.151C407.829 122.913 402.597 214.006 402.597 214.006M541.15 117.091L549.441 85.9518M541.15 117.091L510.135 108.791" stroke="white" stroke-width="16"/>
<path d="M1011.29 375.934C1013.45 375.934 1015.71 375.317 1018.08 374.082C1020.55 372.745 1022.81 370.996 1024.87 368.836L1040 385.347C1036.81 389.05 1032.54 392.085 1027.19 394.451C1021.83 396.817 1016.69 398 1011.75 398C1004.24 398 997.546 396.354 991.68 393.062C985.813 389.77 981.233 385.244 977.94 379.483C974.647 373.619 973 366.984 973 359.577C973 352.067 974.647 345.432 977.94 339.671C981.233 333.808 985.813 329.23 991.68 325.938C997.546 322.646 1004.24 321 1011.75 321C1017.2 321 1022.4 322.132 1027.34 324.395C1032.28 326.658 1036.5 329.744 1040 333.653L1024.87 350.01C1022.81 347.85 1020.55 346.152 1018.08 344.918C1015.71 343.683 1013.45 343.066 1011.29 343.066C1008.2 343.066 1005.52 343.735 1003.26 345.072C1001.1 346.307 999.399 348.158 998.164 350.627C997.031 353.096 996.465 356.079 996.465 359.577C996.465 362.972 997.031 365.904 998.164 368.373C999.399 370.842 1001.1 372.745 1003.26 374.082C1005.52 375.317 1008.2 375.934 1011.29 375.934Z" fill="black"/>
<path d="M964.544 320.692V397H941.456V320.692H964.544ZM953 282C956.544 282 959.43 283.126 961.658 285.378C963.886 287.63 965 290.547 965 294.129C965 297.61 963.886 300.527 961.658 302.881C959.43 305.133 956.544 306.259 953 306.259C949.557 306.259 946.671 305.133 944.342 302.881C942.114 300.527 941 297.61 941 294.129C941 290.547 942.114 287.63 944.342 285.378C946.671 283.126 949.557 282 953 282Z" fill="black"/>
<path d="M905.572 336.648C907.016 333.239 909.026 330.347 911.604 327.972C914.285 325.493 917.07 323.685 919.957 322.549C922.947 321.413 925.628 320.948 928 321.155V341.915C923.875 341.606 920.318 342.484 917.327 344.549C914.337 346.512 912.068 349.042 910.522 352.141C908.975 355.239 908.201 358.286 908.201 361.282V398H885V321H908.201V337.423L905.572 336.648Z" fill="black"/>
<path d="M789 281H812.784V327.675H837.82C841.68 327.675 845.696 328.543 849.869 330.277C854.146 331.909 857.953 333.899 861.291 336.245C865.568 339 869.063 342.877 871.775 347.876C874.592 352.875 876 357.925 876 363.026C876 369.556 874.592 375.422 871.775 380.625C869.063 385.726 865.203 389.756 860.196 392.715C855.293 395.572 849.712 397 843.453 397H789V281ZM839.072 377.106C843.14 377.106 846.322 375.881 848.617 373.433C851.016 370.882 852.216 367.413 852.216 363.026C852.216 358.231 851.016 354.456 848.617 351.702C846.322 348.947 843.14 347.57 839.072 347.57H812.784V377.106H839.072ZM830.153 327.675C833.804 327.573 836.673 326.4 838.759 324.156C840.95 321.809 842.045 318.697 842.045 314.821C842.045 310.536 840.95 307.169 838.759 304.72C836.568 302.17 833.543 300.894 829.683 300.894H789V281H833.126C839.385 281 844.966 282.326 849.869 284.979C854.876 287.631 858.736 291.355 861.448 296.15C864.264 300.945 865.673 306.404 865.673 312.525C865.673 316.606 864.525 320.891 862.23 325.38C860.04 329.767 857.171 333.389 853.624 336.245L830.153 327.675Z" fill="black"/>
<path d="M1079.98 104.23L1097.06 84.6885H1124L1097.72 114.328L1121.5 150H1097.59L1083.39 128.754L1079.98 132.82V150H1060V54H1079.98V104.23Z" fill="black"/>
<path d="M1010.92 154C1005.12 154 1000.04 152.654 995.691 149.962C991.341 147.183 987.971 143.362 985.583 138.499C983.194 133.549 982 127.904 982 121.565C982 115.226 983.194 109.625 985.583 104.762C987.971 99.8116 991.341 95.9906 995.691 93.2986C1000.04 90.5197 1005.12 89.1303 1010.92 89.1303C1014.07 89.1303 1017.23 89.825 1020.39 91.2144C1023.54 92.6039 1026.1 94.8183 1028.06 97.8577L1027.55 99.0301V89H1047V153.87H1027.55V144.1L1028.06 145.403C1026.7 147.487 1025.03 149.18 1023.07 150.483C1021.11 151.699 1019.06 152.567 1016.93 153.088C1014.88 153.696 1012.88 154 1010.92 154ZM1013.99 137.978C1016.46 137.978 1018.72 137.283 1020.77 135.894C1022.82 134.417 1024.44 132.464 1025.63 130.032C1026.91 127.514 1027.55 124.691 1027.55 121.565C1027.55 118.439 1026.91 115.66 1025.63 113.228C1024.44 110.71 1022.82 108.756 1020.77 107.367C1018.72 105.89 1016.46 105.152 1013.99 105.152C1011.34 105.152 1009.08 105.804 1007.21 107.106C1005.33 108.409 1003.88 110.276 1002.86 112.707C1001.92 115.139 1001.45 118.092 1001.45 121.565C1001.45 125.039 1001.92 127.991 1002.86 130.423C1003.88 132.854 1005.33 134.721 1007.21 136.024C1009.08 137.327 1011.34 137.978 1013.99 137.978Z" fill="black"/>
<path d="M942.062 154C936.072 154 930.724 152.651 926.017 149.954C921.311 147.169 917.632 143.341 914.979 138.468C912.326 133.508 911 127.896 911 121.631C911 115.278 912.326 109.666 914.979 104.793C917.632 99.8333 921.311 95.9612 926.017 93.1767C930.724 90.3922 936.072 89 942.062 89C948.051 89 953.014 90.2617 956.951 92.7851C960.972 95.3086 963.753 97.7015 965.294 99.9639C966.834 102.139 968.117 104.315 969.144 106.49C970.599 109.448 971.454 112.712 971.711 116.279C971.968 119.76 972.053 123.327 971.968 126.982V128.287H929.226C929.74 130.201 930.681 131.855 932.05 133.247C933.419 134.639 935.002 135.727 936.799 136.51C938.596 137.293 940.393 137.685 942.19 137.685C944.329 137.685 946.169 137.424 947.709 136.902C949.335 136.38 950.618 135.727 951.56 134.944C952.501 134.074 953.228 133.16 953.742 132.203L969.786 138.337C968.075 142.601 964.823 146.299 960.031 149.432C955.325 152.477 949.335 154 942.062 154ZM954.127 116.671C953.613 114.321 952.8 112.276 951.688 110.536C950.661 108.796 949.335 107.491 947.709 106.62C946.083 105.663 944.201 105.185 942.062 105.185C938.81 105.185 936.072 106.185 933.847 108.187C931.622 110.188 930.125 113.016 929.355 116.671H954.127Z" fill="black"/>
<path d="M885.745 102.209C886.92 99.332 888.556 96.8907 890.655 94.8853C892.837 92.7928 895.103 91.2669 897.453 90.3078C899.887 89.3488 902.07 88.9564 904 89.1308V106.656C900.643 106.394 897.747 107.135 895.313 108.879C892.879 110.536 891.032 112.672 889.773 115.288C888.514 117.903 887.885 120.476 887.885 123.004V154H869V89H887.885V102.863L885.745 102.209Z" fill="black"/>
<path d="M788 56H807.683V95.0303H828.403C831.597 95.0303 834.921 95.7555 838.374 97.2058C841.914 98.5708 845.065 100.234 847.827 102.197C851.367 104.5 854.259 107.742 856.504 111.922C858.835 116.102 860 120.325 860 124.591C860 130.051 858.835 134.956 856.504 139.307C854.259 143.573 851.065 146.943 846.921 149.417C842.863 151.806 838.245 153 833.065 153H788V56ZM829.439 136.364C832.806 136.364 835.439 135.34 837.338 133.293C839.324 131.16 840.317 128.259 840.317 124.591C840.317 120.581 839.324 117.425 837.338 115.121C835.439 112.818 832.806 111.666 829.439 111.666H807.683V136.364H829.439ZM822.058 95.0303C825.079 94.945 827.453 93.9639 829.18 92.0871C830.993 90.1249 831.899 87.5229 831.899 84.281C831.899 80.6979 830.993 77.8826 829.18 75.8351C827.367 73.7023 824.863 72.6359 821.669 72.6359H788V56H824.518C829.698 56 834.317 57.1091 838.374 59.3272C842.518 61.5453 845.712 64.6592 847.957 68.6689C850.288 72.6785 851.453 77.2427 851.453 82.3615C851.453 85.774 850.504 89.3571 848.604 93.1108C846.791 96.7792 844.417 99.8078 841.482 102.197L822.058 95.0303Z" fill="black"/>
<path d="M953.244 234C948.782 234 944.878 232.965 941.531 230.894C938.185 228.756 935.593 225.817 933.756 222.076C931.919 218.269 931 213.927 931 209.05C931 204.174 931.919 199.865 933.756 196.124C935.593 192.317 938.185 189.377 941.531 187.307C944.878 185.169 948.782 184.1 953.244 184.1C955.672 184.1 958.1 184.635 960.528 185.703C962.955 186.772 964.924 188.476 966.433 190.814L966.039 191.715V184H981V233.9H966.039V226.385L966.433 227.387C965.383 228.99 964.104 230.293 962.594 231.295C961.085 232.23 959.511 232.898 957.87 233.299C956.295 233.766 954.753 234 953.244 234ZM955.606 221.675C957.509 221.675 959.248 221.141 960.823 220.072C962.398 218.937 963.644 217.434 964.563 215.563C965.547 213.626 966.039 211.455 966.039 209.05C966.039 206.645 965.547 204.508 964.563 202.637C963.644 200.7 962.398 199.197 960.823 198.128C959.248 196.993 957.509 196.425 955.606 196.425C953.572 196.425 951.833 196.926 950.39 197.928C948.946 198.93 947.831 200.366 947.043 202.236C946.322 204.107 945.961 206.378 945.961 209.05C945.961 211.722 946.322 213.993 947.043 215.864C947.831 217.734 948.946 219.17 950.39 220.172C951.833 221.174 953.572 221.675 955.606 221.675Z" fill="black"/>
<path d="M1359.37 398.926C1342.96 401.157 1344.35 437.857 1330.67 431.3C1314.15 423.383 1353.04 402.5 1344.34 386.366C1335.02 369.086 1295.85 394.645 1295.22 375.86C1294.6 357.347 1332.35 380.055 1341.02 363.685C1350.81 345.192 1300.19 330.305 1315.84 316.423C1331.73 302.325 1336.89 354.75 1357.79 350.989C1377.91 347.369 1366.91 299.642 1386.03 306.862C1402.93 313.242 1364.77 345.889 1378.12 364.025C1391.17 381.761 1432.77 352.338 1433.53 374.361C1434.28 396.457 1387.3 367.446 1378.57 387.761C1371.7 403.755 1406.57 418.318 1392.76 428.905C1378.06 440.174 1377.71 396.432 1359.37 398.926Z" stroke="white" stroke-width="6"/>
</g>
<defs>
<clipPath id="clip0_1575_44240">
<rect width="1920" height="500" fill="white"/>
</clipPath>
</defs>
</svg>
