<svg xmlns="http://www.w3.org/2000/svg" width="20" height="20" viewBox="0 0 20 20" fill="none">
<path fill-rule="evenodd" clip-rule="evenodd" d="M6.0013 1.5C6.27744 1.5 6.5013 1.72386 6.5013 2V3H13.5013V2C13.5013 1.72386 13.7252 1.5 14.0013 1.5C14.2774 1.5 14.5013 1.72386 14.5013 2V3H16.8346C17.6631 3 18.3346 3.67157 18.3346 4.5V16.8333C18.3346 17.6618 17.6631 18.3333 16.8346 18.3333H3.16797C2.33954 18.3333 1.66797 17.6618 1.66797 16.8333V4.5C1.66797 3.67157 2.33954 3 3.16797 3H5.5013V2C5.5013 1.72386 5.72516 1.5 6.0013 1.5ZM13.5013 4V4.66667C13.5013 4.94281 13.7252 5.16667 14.0013 5.16667C14.2774 5.16667 14.5013 4.94281 14.5013 4.66667V4H16.8346C17.1108 4 17.3346 4.22386 17.3346 4.5V7H2.66797V4.5C2.66797 4.22386 2.89183 4 3.16797 4H5.5013V4.66667C5.5013 4.94281 5.72516 5.16667 6.0013 5.16667C6.27744 5.16667 6.5013 4.94281 6.5013 4.66667V4H13.5013ZM2.66797 8V16.8333C2.66797 17.1095 2.89183 17.3333 3.16797 17.3333H16.8346C17.1108 17.3333 17.3346 17.1095 17.3346 16.8333V8H2.66797ZM9.33463 9.83333C9.33463 9.55719 9.55849 9.33333 9.83463 9.33333H10.168C10.4441 9.33333 10.668 9.55719 10.668 9.83333V10.1667C10.668 10.4428 10.4441 10.6667 10.168 10.6667H9.83463C9.55849 10.6667 9.33463 10.4428 9.33463 10.1667V9.83333ZM12.5013 9.33333C12.2252 9.33333 12.0013 9.55719 12.0013 9.83333V10.1667C12.0013 10.4428 12.2252 10.6667 12.5013 10.6667H12.8346C13.1108 10.6667 13.3346 10.4428 13.3346 10.1667V9.83333C13.3346 9.55719 13.1108 9.33333 12.8346 9.33333H12.5013ZM14.668 9.83333C14.668 9.55719 14.8918 9.33333 15.168 9.33333H15.5013C15.7774 9.33333 16.0013 9.55719 16.0013 9.83333V10.1667C16.0013 10.4428 15.7774 10.6667 15.5013 10.6667H15.168C14.8918 10.6667 14.668 10.4428 14.668 10.1667V9.83333ZM15.168 12C14.8918 12 14.668 12.2239 14.668 12.5V12.8333C14.668 13.1095 14.8918 13.3333 15.168 13.3333H15.5013C15.7774 13.3333 16.0013 13.1095 16.0013 12.8333V12.5C16.0013 12.2239 15.7774 12 15.5013 12H15.168ZM12.0013 12.5C12.0013 12.2239 12.2252 12 12.5013 12H12.8346C13.1108 12 13.3346 12.2239 13.3346 12.5V12.8333C13.3346 13.1095 13.1108 13.3333 12.8346 13.3333H12.5013C12.2252 13.3333 12.0013 13.1095 12.0013 12.8333V12.5ZM9.83463 12C9.55849 12 9.33463 12.2239 9.33463 12.5V12.8333C9.33463 13.1095 9.55849 13.3333 9.83463 13.3333H10.168C10.4441 13.3333 10.668 13.1095 10.668 12.8333V12.5C10.668 12.2239 10.4441 12 10.168 12H9.83463ZM6.66797 12.5C6.66797 12.2239 6.89183 12 7.16797 12H7.5013C7.77745 12 8.0013 12.2239 8.0013 12.5V12.8333C8.0013 13.1095 7.77745 13.3333 7.5013 13.3333H7.16797C6.89183 13.3333 6.66797 13.1095 6.66797 12.8333V12.5ZM4.5013 12C4.22516 12 4.0013 12.2239 4.0013 12.5V12.8333C4.0013 13.1095 4.22516 13.3333 4.5013 13.3333H4.83464C5.11078 13.3333 5.33464 13.1095 5.33464 12.8333V12.5C5.33464 12.2239 5.11078 12 4.83464 12H4.5013ZM4.0013 15.1667C4.0013 14.8905 4.22516 14.6667 4.5013 14.6667H4.83464C5.11078 14.6667 5.33464 14.8905 5.33464 15.1667V15.5C5.33464 15.7761 5.11078 16 4.83464 16H4.5013C4.22516 16 4.0013 15.7761 4.0013 15.5V15.1667ZM7.16797 14.6667C6.89183 14.6667 6.66797 14.8905 6.66797 15.1667V15.5C6.66797 15.7761 6.89183 16 7.16797 16H7.5013C7.77745 16 8.0013 15.7761 8.0013 15.5V15.1667C8.0013 14.8905 7.77745 14.6667 7.5013 14.6667H7.16797ZM9.33463 15.1667C9.33463 14.8905 9.55849 14.6667 9.83463 14.6667H10.168C10.4441 14.6667 10.668 14.8905 10.668 15.1667V15.5C10.668 15.7761 10.4441 16 10.168 16H9.83463C9.55849 16 9.33463 15.7761 9.33463 15.5V15.1667ZM12.5013 14.6667C12.2252 14.6667 12.0013 14.8905 12.0013 15.1667V15.5C12.0013 15.7761 12.2252 16 12.5013 16H12.8346C13.1108 16 13.3346 15.7761 13.3346 15.5V15.1667C13.3346 14.8905 13.1108 14.6667 12.8346 14.6667H12.5013Z" fill="#9A9B9D"/>
</svg>