<svg width="100" height="100" viewBox="0 0 100 100" fill="none" xmlns="http://www.w3.org/2000/svg">
<path fill-rule="evenodd" clip-rule="evenodd" d="M76.8922 25.2255C77.478 24.6397 77.478 23.69 76.8922 23.1042C76.3064 22.5184 75.3566 22.5184 74.7709 23.1042L49.9982 47.8769L25.2255 23.1042C24.6397 22.5184 23.69 22.5184 23.1042 23.1042C22.5184 23.69 22.5184 24.6397 23.1042 25.2255L47.8769 49.9982L23.1042 74.7709C22.5184 75.3566 22.5184 76.3064 23.1042 76.8922C23.69 77.478 24.6397 77.478 25.2255 76.8922L49.9982 52.1195L74.7709 76.8922C75.3566 77.478 76.3064 77.478 76.8922 76.8922C77.478 76.3064 77.478 75.3566 76.8922 74.7709L52.1195 49.9982L76.8922 25.2255Z" fill="#F9FAFC"/>
</svg>
