<svg width="15" height="15" viewBox="0 0 15 15" fill="none" xmlns="http://www.w3.org/2000/svg">
<path fill-rule="evenodd" clip-rule="evenodd" d="M11.7824 4.03237C12.0069 3.80782 12.0069 3.44375 11.7824 3.21919C11.5578 2.99464 11.1937 2.99464 10.9692 3.21919L7.50078 6.68761L4.03237 3.21919C3.80782 2.99464 3.44375 2.99464 3.2192 3.21919C2.99464 3.44375 2.99464 3.80782 3.2192 4.03237L6.68761 7.50078L3.21919 10.9692C2.99464 11.1937 2.99464 11.5578 3.21919 11.7824C3.44375 12.0069 3.80782 12.0069 4.03237 11.7824L7.50078 8.31395L10.9692 11.7824C11.1937 12.0069 11.5578 12.0069 11.7824 11.7824C12.0069 11.5578 12.0069 11.1937 11.7824 10.9692L8.31395 7.50078L11.7824 4.03237Z" fill="#F9FAFC"/>
</svg>
