<svg xmlns="http://www.w3.org/2000/svg" width="24" height="24" viewBox="0 0 24 24" fill="none">
<path fill-rule="evenodd" clip-rule="evenodd" d="M1 7.35715C1 3.84948 3.83341 1 7.33593 1C9.77695 1 10.8557 2.02148 11.9999 3.83242C13.144 2.02148 14.2228 1 16.6638 1C20.1663 1 22.9997 3.84948 22.9997 7.35715C22.9997 10.6407 21.1277 13.7982 18.9796 16.4181C16.9448 18.8997 14.5441 21.0374 12.9052 22.4967C12.7987 22.5916 12.6953 22.6836 12.5955 22.7726C12.2561 23.0754 11.7436 23.0754 11.4042 22.7726C11.3044 22.6836 11.2011 22.5916 11.0945 22.4967C9.45561 21.0374 7.0549 18.8997 5.02019 16.4181C2.87206 13.7982 1 10.6407 1 7.35715Z" fill="black" fill-opacity="0.6"/>
<path d="M11.9999 3.83242L11.5772 4.09949C11.6688 4.2445 11.8283 4.33242 11.9999 4.33242C12.1714 4.33242 12.331 4.2445 12.4226 4.09949L11.9999 3.83242ZM18.9796 16.4181L19.3662 16.7352V16.7352L18.9796 16.4181ZM12.9052 22.4967L13.2377 22.8701L13.2377 22.8701L12.9052 22.4967ZM12.5955 22.7726L12.9284 23.1457H12.9284L12.5955 22.7726ZM11.4042 22.7726L11.0713 23.1457L11.4042 22.7726ZM11.0945 22.4967L11.427 22.1232V22.1232L11.0945 22.4967ZM5.02019 16.4181L4.63354 16.7352L5.02019 16.4181ZM7.33593 0.5C3.55536 0.5 0.5 3.57525 0.5 7.35715H1.5C1.5 4.12371 4.11146 1.5 7.33593 1.5V0.5ZM23.4997 7.35715C23.4997 3.57525 20.4444 0.5 16.6638 0.5V1.5C19.8883 1.5 22.4997 4.12371 22.4997 7.35715H23.4997ZM19.3662 16.7352C21.5331 14.0923 23.4997 10.8201 23.4997 7.35715H22.4997C22.4997 10.4613 20.7222 13.5041 18.5929 16.1011L19.3662 16.7352ZM13.2377 22.8701C14.8741 21.413 17.3032 19.2512 19.3662 16.7352L18.5929 16.1011C16.5865 18.5482 14.2141 20.6617 12.5727 22.1232L13.2377 22.8701ZM12.9284 23.1457C13.028 23.0569 13.1311 22.965 13.2377 22.8701L12.5727 22.1232C12.4662 22.2181 12.3627 22.3103 12.2626 22.3996L12.9284 23.1457ZM11.0713 23.1457C11.6004 23.6177 12.3994 23.6177 12.9284 23.1457L12.2626 22.3996C12.1129 22.5331 11.8868 22.5331 11.7371 22.3996L11.0713 23.1457ZM10.762 22.8701C10.8686 22.965 10.9718 23.0569 11.0713 23.1457L11.7371 22.3996C11.6371 22.3103 11.5335 22.2181 11.427 22.1232L10.762 22.8701ZM4.63354 16.7352C6.69653 19.2512 9.12562 21.413 10.762 22.8701L11.427 22.1232C9.7856 20.6617 7.41327 18.5482 5.40684 16.1011L4.63354 16.7352ZM0.5 7.35715C0.5 10.8201 2.46663 14.0923 4.63354 16.7352L5.40684 16.1011C3.27749 13.5041 1.5 10.4613 1.5 7.35715H0.5ZM16.6638 0.5C15.3686 0.5 14.3854 0.77266 13.5669 1.32193C12.7608 1.86289 12.16 2.64292 11.5772 3.56536L12.4226 4.09949C12.9839 3.21098 13.4945 2.5748 14.1241 2.15228C14.7413 1.73808 15.518 1.5 16.6638 1.5V0.5ZM12.4226 3.56536C11.8398 2.64292 11.2389 1.86289 10.4328 1.32193C9.61437 0.772661 8.63117 0.5 7.33593 0.5V1.5C8.48171 1.5 9.2584 1.73808 9.8756 2.15228C10.5052 2.5748 11.0158 3.21098 11.5772 4.09949L12.4226 3.56536Z" fill="#F9FAFC"/>
</svg>