<svg width="101" height="100" viewBox="0 0 101 100" fill="none" xmlns="http://www.w3.org/2000/svg">
<path fill-rule="evenodd" clip-rule="evenodd" d="M14.332 11.332H86.6654C88.0461 11.332 89.1654 12.4513 89.1654 13.832V86.1654C89.1654 87.5461 88.0461 88.6654 86.6654 88.6654H14.332C12.9513 88.6654 11.832 87.5461 11.832 86.1654V13.832C11.832 12.4513 12.9513 11.332 14.332 11.332ZM14.332 13.332C14.0559 13.332 13.832 13.5559 13.832 13.832V60.8075L28.0158 46.6812C28.102 46.5953 28.2194 46.548 28.3411 46.5501C28.4628 46.5522 28.5784 46.6035 28.6617 46.6923L52.8064 72.4524L72.3491 52.9888C72.5247 52.814 72.8086 52.814 72.9842 52.9888L87.1654 67.1126V13.832C87.1654 13.5559 86.9415 13.332 86.6654 13.332H14.332ZM13.832 86.1654V62.0777L28.3222 47.6462L52.4623 73.4012L52.467 73.4063L64.5164 86.6654H14.332C14.0559 86.6654 13.832 86.4415 13.832 86.1654ZM86.6654 86.6654H65.7325L53.4175 73.1141L72.6667 53.9428L87.1654 68.3828V86.1654C87.1654 86.4415 86.9415 86.6654 86.6654 86.6654ZM42.2768 36.6654C42.2768 32.1245 45.9579 28.4435 50.4987 28.4435C55.0395 28.4435 58.7206 32.1245 58.7206 36.6654C58.7206 41.2062 55.0395 44.8872 50.4987 44.8872C45.9579 44.8872 42.2768 41.2062 42.2768 36.6654ZM50.4987 27.5435C45.4608 27.5435 41.3768 31.6275 41.3768 36.6654C41.3768 41.7032 45.4608 45.7872 50.4987 45.7872C55.5366 45.7872 59.6206 41.7032 59.6206 36.6654C59.6206 31.6275 55.5366 27.5435 50.4987 27.5435Z" fill="#1E1F20"/>
</svg>
