<svg width="12" height="12" viewBox="0 0 12 12" fill="none" xmlns="http://www.w3.org/2000/svg">
<path fill-rule="evenodd" clip-rule="evenodd" d="M5.99873 0.609375C3.02012 0.609375 0.605469 3.02403 0.605469 6.00264C0.605469 8.98123 3.02012 11.3959 5.99873 11.3959C8.97733 11.3959 11.392 8.98124 11.392 6.00264C11.392 3.02402 8.97733 0.609375 5.99873 0.609375ZM1.55547 6.00264C1.55547 3.5487 3.54479 1.55938 5.99873 1.55938C8.45266 1.55938 10.442 3.5487 10.442 6.00264C10.442 8.45656 8.45266 10.4459 5.99873 10.4459C3.54479 10.4459 1.55547 8.45657 1.55547 6.00264ZM6.59875 3.60285C6.59875 3.93422 6.33012 4.20285 5.99875 4.20285C5.66738 4.20285 5.39875 3.93422 5.39875 3.60285C5.39875 3.27148 5.66738 3.00285 5.99875 3.00285C6.33012 3.00285 6.59875 3.27148 6.59875 3.60285ZM4.69884 4.70285H5.19884H5.99884C6.27498 4.70285 6.49884 4.92671 6.49884 5.20285V7.90285H6.79884H7.29884V8.90285H6.79884H5.99884H5.19884H4.69884V7.90285H5.19884H5.49884V5.70285H5.19884H4.69884V4.70285Z" fill="#9A9B9D"/>
</svg>
