<svg xmlns="http://www.w3.org/2000/svg" width="88" height="22" viewBox="0 0 88 22" fill="none">
  <g clip-path="url(#clip0_1190_29636)">
    <path d="M76 19.8472V2.15282C76 1.4647 76.1617 0.933869 76.4851 0.560321C76.8255 0.186773 77.2851 0 77.8638 0C78.4426 0 78.8936 0.186773 79.217 0.560321C79.5574 0.933869 79.7277 1.4647 79.7277 2.15282V11.9437L83.8638 6.63539C84.3064 6.0849 84.783 5.80965 85.2936 5.80965C85.7362 5.80965 86.1362 6.00626 86.4936 6.39946C86.8681 6.77301 87.0553 7.2252 87.0553 7.75603C87.0553 8.09026 87.0128 8.34584 86.9277 8.52279C86.8596 8.68007 86.7319 8.87668 86.5447 9.1126C86.5277 9.13226 86.5106 9.15192 86.4936 9.17158L83.7362 12.504L87.617 18.5201C87.7192 18.6774 87.8043 18.874 87.8723 19.1099C87.9574 19.3262 88 19.5916 88 19.9062C88 20.4567 87.8298 20.9482 87.4894 21.3807C87.1489 21.7936 86.7319 22 86.2383 22C85.8298 22 85.4894 21.9017 85.217 21.7051C84.9447 21.5282 84.7234 21.2922 84.5532 20.9973L81.0298 15.2466L79.7277 16.5737V19.8472C79.7277 20.5353 79.5574 21.0661 79.217 21.4397C78.8936 21.8132 78.4426 22 77.8638 22C77.2851 22 76.8255 21.8132 76.4851 21.4397C76.1617 21.0661 76 20.5353 76 19.8472Z" fill="black"/>
    <path d="M61 14.306C61 11.7996 61.6318 9.78871 62.8953 8.27322C64.1766 6.75774 65.9829 6 68.3142 6C69.0972 6 69.8357 6.11657 70.5298 6.34973C71.2416 6.56345 71.8556 6.8646 72.3717 7.25319C72.8877 7.62234 73.2882 8.04979 73.5729 8.53552C73.8576 9.02125 74 9.50698 74 9.99271C74 10.5756 73.822 11.0322 73.4661 11.3625C73.128 11.6733 72.7009 11.8288 72.1848 11.8288C71.8111 11.8288 71.5264 11.7413 71.3306 11.5665C71.1348 11.3916 70.9213 11.1293 70.6899 10.7796C70.3874 10.2939 70.0671 9.93443 69.729 9.70128C69.4086 9.4487 68.9014 9.3224 68.2074 9.3224C67.7981 9.3224 67.3977 9.40984 67.0062 9.5847C66.6324 9.74013 66.2854 10.0121 65.9651 10.4007C65.6448 10.7893 65.3867 11.3042 65.191 11.9454C64.9952 12.5865 64.8973 13.3734 64.8973 14.306C64.8973 15.6466 65.1821 16.7152 65.7515 17.5118C66.321 18.289 67.1307 18.6776 68.1807 18.6776C68.8214 18.6776 69.3107 18.5513 69.6489 18.2987C69.987 18.0267 70.3073 17.6478 70.6099 17.1621C70.8768 16.7541 71.1259 16.4529 71.3573 16.2587C71.6064 16.0449 71.9446 15.9381 72.3717 15.9381C72.8522 15.9381 73.2437 16.1032 73.5462 16.4335C73.8487 16.7444 74 17.1233 74 17.5701C74 18.0559 73.8754 18.561 73.6263 19.0856C73.3771 19.5908 73.0034 20.0668 72.5051 20.5137C72.0068 20.9605 71.3751 21.32 70.6099 21.592C69.8624 21.864 69.0171 22 68.0739 22C65.7604 22 63.9986 21.3005 62.7885 19.9016C61.5962 18.5027 61 16.6375 61 14.306Z" fill="black"/>
    <path d="M55.0789 19.8587V8.03733C55.0789 7.392 55.2193 6.87378 55.5 6.48267C55.7982 6.09156 56.2982 5.896 57 5.896C57.7018 5.896 58.193 6.09156 58.4737 6.48267C58.7719 6.87378 58.9211 7.392 58.9211 8.03733V19.8587C58.9211 20.504 58.7719 21.0222 58.4737 21.4133C58.193 21.8044 57.7018 22 57 22C56.2982 22 55.7982 21.8044 55.5 21.4133C55.2193 21.0222 55.0789 20.504 55.0789 19.8587ZM55 2.22934C55 1.60356 55.193 1.07556 55.5789 0.645334C55.9649 0.215111 56.4386 0 57 0C57.5614 0 58.0351 0.215111 58.4211 0.645334C58.807 1.07556 59 1.60356 59 2.22934C59 2.85511 58.807 3.38311 58.4211 3.81333C58.0351 4.24356 57.5614 4.45867 57 4.45867C56.4386 4.45867 55.9649 4.24356 55.5789 3.81333C55.193 3.38311 55 2.85511 55 2.22934Z" fill="black"/>
    <path d="M44 19.8725V7.98178C44 7.36005 44.1612 6.87432 44.4836 6.52459C44.8239 6.17486 45.2537 6 45.7731 6C46.2925 6 46.7134 6.17486 47.0358 6.52459C47.3761 6.87432 47.5463 7.36005 47.5463 7.98178V9.61384H47.6C47.8687 8.56466 48.2537 7.70006 48.7552 7.02004C49.2746 6.34001 49.9731 6 50.8507 6C51.4776 6 51.9881 6.19429 52.3821 6.58288C52.794 6.97146 53 7.46691 53 8.06922C53 8.80753 52.8119 9.35155 52.4358 9.70128C52.0776 10.0316 51.6209 10.1967 51.0657 10.1967H50.3672C49.5433 10.1967 48.9254 10.5562 48.5134 11.275C48.1194 11.9939 47.9224 13.2083 47.9224 14.918V19.8725C47.9224 20.5137 47.7701 21.0285 47.4657 21.4171C47.1791 21.8057 46.6776 22 45.9612 22C45.2448 22 44.7343 21.8057 44.4299 21.4171C44.1433 21.0285 44 20.5137 44 19.8725Z" fill="black"/>
    <rect y="15.582" width="16.5087" height="6.41674" rx="3" fill="black"/>
    <rect y="7.79688" width="24.9989" height="6.41674" rx="3" fill="black"/>
    <rect x="16.9805" y="15.582" width="8.01852" height="6.41674" rx="3" fill="#F64A19"/>
    <rect width="24.9989" height="6.41674" rx="3" fill="black"/>
    <path fill-rule="evenodd" clip-rule="evenodd" d="M27.25 0C26.5596 0 26 0.615608 26 1.375V21.1619C26 21.6248 26.3411 22 26.7619 22H36.125C39.3697 22 42 19.1066 42 15.5375C42 13.0673 40.7401 10.9208 38.8886 9.83318C39.435 8.85181 39.75 7.69762 39.75 6.4625C39.75 2.89336 37.1197 0 33.875 0H27.25ZM30 4.9C30 4.62386 30.2239 4.4 30.5 4.4H33.3C34.515 4.4 35.5 5.38497 35.5 6.6C35.5 7.81503 34.515 8.8 33.3 8.8H30.5C30.2239 8.8 30 8.57614 30 8.3V4.9ZM37.5 14.85C37.5 13.3312 36.2688 12.1 34.75 12.1H30.6818C30.3053 12.1 30 12.4053 30 12.7818V16.9182C30 17.2947 30.3053 17.6 30.6818 17.6H34.75C36.2688 17.6 37.5 16.3688 37.5 14.85Z" fill="black"/>
  </g>
  <defs>
    <clipPath id="clip0_1190_29636">
      <rect width="88" height="22" fill="white"/>
    </clipPath>
  </defs>
</svg>