<svg xmlns="http://www.w3.org/2000/svg" width="84" height="30" viewBox="0 0 84 30" fill="none">
  <g clip-path="url(#clip0_714_29775)">
    <mask id="mask0_714_29775" style="mask-type:luminance" maskUnits="userSpaceOnUse" x="0" y="0" width="84" height="30">
      <path d="M84 0H0V30H84V0Z" fill="white"/>
    </mask>
    <g mask="url(#mask0_714_29775)">
      <path d="M53.4542 24.0781H36.9757C36.5318 24.0781 36.1719 24.4316 36.1719 24.8676V29.2097C36.1719 29.6457 36.5318 29.9992 36.9757 29.9992H53.4542C53.8981 29.9992 54.258 29.6457 54.258 29.2097V24.8676C54.258 24.4316 53.8981 24.0781 53.4542 24.0781Z" fill="black"/>
      <path d="M62.2963 17.3672H36.9757C36.5318 17.3672 36.1719 17.7206 36.1719 18.1567V22.4988C36.1719 22.9348 36.5318 23.2882 36.9757 23.2882H62.2963C62.7402 23.2882 63.1001 22.9348 63.1001 22.4988V18.1567C63.1001 17.7206 62.7402 17.3672 62.2963 17.3672Z" fill="black"/>
      <path d="M62.2969 24.0781H55.8663C55.4224 24.0781 55.0625 24.4316 55.0625 24.8676V29.2097C55.0625 29.6457 55.4224 29.9992 55.8663 29.9992H62.2969C62.7409 29.9992 63.1008 29.6457 63.1008 29.2097V24.8676C63.1008 24.4316 62.7409 24.0781 62.2969 24.0781Z" fill="#F64A19"/>
      <path d="M62.2963 10.6562H36.9757C36.5318 10.6562 36.1719 11.0097 36.1719 11.4457V15.7878C36.1719 16.2238 36.5318 16.5773 36.9757 16.5773H62.2963C62.7402 16.5773 63.1001 16.2238 63.1001 15.7878V11.4457C63.1001 11.0097 62.7402 10.6562 62.2963 10.6562Z" fill="black"/>
      <path d="M70.4567 16.2239L75.6816 10.3423H83.9209L75.8826 19.2634L83.1572 30.0002H75.8424L71.5017 23.6055L70.4567 24.8292V30.0002H64.3477V1.10547H70.4567V16.2239Z" fill="black"/>
      <path d="M29.0988 14.5869C29.4766 13.7307 30.0028 13.0043 30.6775 12.4075C31.3791 11.7849 32.1078 11.3308 32.8635 11.0454C33.6461 10.76 34.3477 10.6433 34.9684 10.6952V15.9102C33.8889 15.8323 32.9579 16.0529 32.1753 16.5717C31.3926 17.0647 30.7989 17.7004 30.3941 18.4787C29.9893 19.2571 29.7869 20.0224 29.7869 20.7749V29.9984H23.7148V10.6562H29.7869V14.7815L29.0988 14.5869Z" fill="black"/>
      <path d="M0 0H6.10909V12.0395H12.5397C13.5311 12.0395 14.5627 12.2632 15.6345 12.7105C16.733 13.1316 17.711 13.6447 18.5684 14.25C19.667 14.9605 20.5646 15.9605 21.2612 17.25C21.9847 18.5395 22.3464 19.8421 22.3464 21.1579C22.3464 22.8421 21.9847 24.3553 21.2612 25.6974C20.5646 27.0131 19.5732 28.0526 18.2871 28.8158C17.0278 29.5526 15.5943 29.9211 13.9866 29.9211H0V0ZM12.8612 24.7895C13.9062 24.7895 14.7234 24.4737 15.3129 23.8421C15.9292 23.1842 16.2373 22.2895 16.2373 21.1579C16.2373 19.9211 15.9292 18.9474 15.3129 18.2368C14.7234 17.5263 13.9062 17.1711 12.8612 17.1711H6.10909V24.7895H12.8612ZM10.5703 12.0395C11.5081 12.0131 12.245 11.7105 12.7809 11.1316C13.3435 10.5263 13.6249 9.72367 13.6249 8.72368C13.6249 7.61842 13.3435 6.75 12.7809 6.11842C12.2182 5.46051 11.4412 5.13158 10.4498 5.13158H0V0H11.334C12.9416 0 14.3751 0.342104 15.6345 1.02631C16.9206 1.71053 17.912 2.67105 18.6086 3.90789C19.3321 5.14472 19.6938 6.55263 19.6938 8.13158C19.6938 9.18422 19.3991 10.2895 18.8096 11.4474C18.2469 12.579 17.5101 13.5131 16.599 14.25L10.5703 12.0395Z" fill="black"/>
    </g>
  </g>
  <defs>
    <clipPath id="clip0_714_29775">
      <rect width="84" height="30" fill="white"/>
    </clipPath>
  </defs>
</svg>