<svg xmlns="http://www.w3.org/2000/svg" width="16" height="16" viewBox="0 0 16 16" fill="none">
  <path fill-rule="evenodd" clip-rule="evenodd" d="M12.6215 1.24801C12.4263 1.05275 12.1097 1.05275 11.9144 1.24801L3.98252 9.17992C3.89256 9.26988 3.82059 9.37617 3.77048 9.49311L2.20841 13.1379C2.12787 13.3259 2.16986 13.5439 2.31443 13.6884C2.459 13.833 2.67702 13.875 2.86494 13.7945L6.50977 12.2324C6.6267 12.1823 6.733 12.1103 6.82296 12.0204L14.7549 4.08845C14.8486 3.99468 14.9013 3.8675 14.9013 3.7349C14.9013 3.60229 14.8486 3.47511 14.7549 3.38134L12.6215 1.24801ZM4.68963 9.88703L12.268 2.30867L13.6942 3.7349L6.11585 11.3133L4.52721 11.9941L4.00878 11.4757L4.68963 9.88703Z" fill="#1E1F20"/>
</svg>