<svg width="19" height="19" viewBox="0 0 19 19" fill="none" xmlns="http://www.w3.org/2000/svg">
<circle cx="9.33333" cy="9.33333" r="9.33333" fill="white"/>
<path fill-rule="evenodd" clip-rule="evenodd" d="M13.3654 3.94593C13.2136 3.79406 12.9673 3.79406 12.8155 3.94593L6.5351 10.2263C6.46513 10.2963 6.40916 10.3789 6.37018 10.4699L5.13302 13.3566C5.07038 13.5028 5.10303 13.6723 5.21548 13.7848C5.32792 13.8972 5.49749 13.9299 5.64365 13.8672L8.53037 12.6301C8.62131 12.5911 8.70399 12.5351 8.77396 12.4652L15.0543 6.18479C15.2062 6.03292 15.2062 5.78669 15.0543 5.63482L13.3654 3.94593ZM7.08507 10.7763L13.0904 4.77089L14.2294 5.90981L8.22398 11.9152L6.96652 12.4541L6.54616 12.0337L7.08507 10.7763Z" fill="#1E1F20"/>
</svg>
