<svg width="80" height="80" viewBox="0 0 80 80" fill="none" xmlns="http://www.w3.org/2000/svg">
<g clip-path="url(#clip0_496_55302)">
<circle cx="40" cy="40" r="40" fill="#9A9B9D"/>
<circle cx="70.6654" cy="70.6654" r="9.33333" fill="white"/>
<path fill-rule="evenodd" clip-rule="evenodd" d="M74.6975 65.278C74.5456 65.1261 74.2994 65.1261 74.1475 65.278L67.8671 71.5583C67.7972 71.6283 67.7412 71.711 67.7022 71.8019L66.465 74.6886C66.4024 74.8348 66.4351 75.0044 66.5475 75.1168C66.66 75.2293 66.8295 75.2619 66.9757 75.1993L69.8624 73.9621C69.9533 73.9231 70.036 73.8672 70.106 73.7972L76.3864 67.5168C76.5382 67.365 76.5382 67.1187 76.3864 66.9669L74.6975 65.278ZM68.4171 72.1083L74.4225 66.1029L75.5614 67.2418L69.556 73.2472L68.2985 73.7861L67.8782 73.3658L68.4171 72.1083Z" fill="#1E1F20"/>
</g>
<defs>
<clipPath id="clip0_496_55302">
<rect width="80" height="80" fill="white"/>
</clipPath>
</defs>
</svg>
