<svg width="60" height="60" viewBox="0 0 60 60" fill="none" xmlns="http://www.w3.org/2000/svg">
<path fill-rule="evenodd" clip-rule="evenodd" d="M29.9999 4.39844C22.4888 4.39844 16.3999 10.4874 16.3999 17.9984C16.3999 25.5095 22.4888 31.5984 29.9999 31.5984C37.511 31.5984 43.5999 25.5095 43.5999 17.9984C43.5999 10.4874 37.511 4.39844 29.9999 4.39844ZM18.3999 17.9984C18.3999 11.5919 23.5934 6.39844 29.9999 6.39844C36.4064 6.39844 41.5999 11.5919 41.5999 17.9984C41.5999 24.4049 36.4064 29.5984 29.9999 29.5984C23.5934 29.5984 18.3999 24.4049 18.3999 17.9984ZM11 54.3982C11 47.3667 12.8533 42.4628 16.0518 39.3106C19.2532 36.1555 23.9614 34.5984 29.9997 34.5984C36.0381 34.5984 40.7463 36.1555 43.9479 39.3106C47.1465 42.4628 48.9999 47.3667 48.9998 54.3982C48.9997 54.9505 49.4474 55.3982 49.9997 55.3982C50.552 55.3982 50.9997 54.9505 50.9998 54.3982C50.9999 47.03 49.0532 41.5339 45.3517 37.8861C41.6532 34.2413 36.3614 32.5984 29.9997 32.5984C23.6381 32.5984 18.3463 34.2413 14.6479 37.8861C10.9466 41.5339 9 47.03 9 54.3982C9 54.9505 9.44772 55.3982 10 55.3982C10.5523 55.3982 11 54.9505 11 54.3982Z" fill="#9A9B9D"/>
</svg>
