<svg xmlns="http://www.w3.org/2000/svg" width="341" height="404" viewBox="0 0 341 404" fill="none">
  <path d="M168.438 90.0637L151.488 2M198.807 66.7215L209.753 22.5128M198.807 287.765L222.113 402M168.438 322.778L161.022 370.523M268.725 148.672L336.172 113.406M82.2751 148.672L6 100.674M49.0813 166.456H13.0625M99.2252 254.52L33.8969 309.339M276.141 236.988L328.051 263.387M178.421 148.672L233.031 100.674L216.744 175.551L282.85 194.27L216.744 212.989L233.031 263.387L183.69 236.988L135.787 302.265L141.535 224.509L49.0813 208.189L127.475 175.551L112.314 104.514L178.421 148.672Z" stroke="#F64A19" stroke-width="20"/>
</svg>