<svg width="22" height="21" viewBox="0 0 22 21" fill="none" xmlns="http://www.w3.org/2000/svg">
<path d="M10.0919 1.46866C10.4494 0.693791 11.5506 0.693793 11.9081 1.46866L14.1512 6.33177C14.2969 6.64758 14.5961 6.86502 14.9415 6.90597L20.2598 7.53653C21.1072 7.637 21.4475 8.68439 20.821 9.26376L16.889 12.8999C16.6337 13.136 16.5194 13.4878 16.5872 13.829L17.6309 19.0818C17.7972 19.9187 16.9062 20.5661 16.1616 20.1493L11.4884 17.5334C11.185 17.3635 10.815 17.3635 10.5116 17.5334L5.83836 20.1493C5.09375 20.5661 4.20279 19.9187 4.3691 19.0818L5.41282 13.829C5.4806 13.4878 5.36629 13.136 5.11095 12.8999L1.17903 9.26376C0.552527 8.68439 0.892845 7.637 1.74024 7.53653L7.05849 6.90597C7.40386 6.86502 7.70314 6.64758 7.84881 6.33177L10.0919 1.46866Z" fill="#EEAC00"/>
</svg>
