<svg width="304" height="226" fill="none" xmlns="http://www.w3.org/2000/svg">
  <path fill-rule="evenodd" clip-rule="evenodd" d="M304 0H0V226H304V0ZM7 17C7 11.4766 11.4766 7 17 7H287C289.828 7 292.383 8.17578 294.199 10.0625C295.934 11.8594 297 14.3047 297 17V209C297 212.691 295 215.918 292.023 217.648C290.547 218.508 288.832 219 287 219H142C138.273 219 135.02 216.961 133.301 213.938C132.473 212.48 132 210.797 132 209V187C132 181.477 127.523 177 122 177H17C11.4766 177 7 172.523 7 167V17Z" fill="#F64A19"/>
</svg>
