<svg width="212" height="158" viewBox="0 0 212 158" fill="none" xmlns="http://www.w3.org/2000/svg">
<path id="Subtract" fill-rule="evenodd" clip-rule="evenodd" d="M10 0C4.47715 0 0 4.47715 0 10V148C0 153.523 4.47715 158 10 158H202C207.523 158 212 153.523 212 148V10C212 4.47715 207.523 0 202 0H10ZM5.00147 10.9919C5.00147 7.68267 7.63048 5 10.8735 5H201.128C204.371 5 207 7.68267 207 10.9919V147.008C207 150.317 204.371 153 201.128 153H93.8728C90.6297 153 88.0007 150.317 88.0007 147.008L88 135.254L87.9999 133.499C87.9995 127.977 83.5225 123.5 77.9999 123.5H68.7117H10.8721C7.62901 123.5 5 120.817 5 117.508L5.00147 10.9919Z" fill="#F64A19"/>
</svg>
