<svg width="14" height="14" viewBox="0 0 14 14" fill="none" xmlns="http://www.w3.org/2000/svg">
<path fill-rule="evenodd" clip-rule="evenodd" d="M6.9997 0.761719C3.55456 0.761719 0.761719 3.55456 0.761719 6.99969C0.761719 10.4448 3.55456 13.2377 6.9997 13.2377C10.4448 13.2377 13.2377 10.4448 13.2377 6.99969C13.2377 3.55456 10.4448 0.761719 6.9997 0.761719ZM1.76172 6.99969C1.76172 4.10684 4.10684 1.76172 6.9997 1.76172C9.89252 1.76172 12.2377 4.10685 12.2377 6.99969C12.2377 9.89252 9.89252 12.2377 6.9997 12.2377C4.10685 12.2377 1.76172 9.89252 1.76172 6.99969ZM9.50871 5.18755C9.66763 4.96172 9.61338 4.64982 9.38755 4.4909C9.16172 4.33199 8.84982 4.38623 8.6909 4.61206L6.08066 8.32136L5.02325 7.24438C4.82979 7.04734 4.51322 7.04443 4.31618 7.2379C4.11913 7.43136 4.11623 7.74793 4.30969 7.94498L5.78747 9.4501C5.89143 9.55599 6.03706 9.61023 6.18496 9.59815C6.33286 9.58606 6.46775 9.50891 6.55315 9.38755L9.50871 5.18755Z" fill="#5E5E60"/>
</svg>
