<svg width="40" height="41" viewBox="0 0 40 41" fill="none" xmlns="http://www.w3.org/2000/svg">
<path fill-rule="evenodd" clip-rule="evenodd" d="M6.66693 3.43359H33.3336C35.3955 3.43359 37.0669 5.10506 37.0669 7.16693V33.8336C37.0669 35.8955 35.3955 37.5669 33.3336 37.5669H6.66693C4.60507 37.5669 2.93359 35.8955 2.93359 33.8336V7.16693C2.93359 5.10507 4.60506 3.43359 6.66693 3.43359ZM6.66693 5.83359C5.93055 5.83359 5.33359 6.43055 5.33359 7.16693V23.4396L10.1366 18.6366C10.2804 18.4928 10.4765 18.4135 10.6798 18.417C10.8832 18.4205 11.0764 18.5065 11.2152 18.6551L20.9853 29.1213L28.8033 21.3033C28.9439 21.1626 29.1347 21.0836 29.3336 21.0836C29.5325 21.0836 29.7233 21.1626 29.8639 21.3033L34.6669 26.1063V7.16693C34.6669 6.43055 34.07 5.83359 33.3336 5.83359H6.66693ZM5.33359 33.8336V25.5609L10.6484 20.2461L20.4145 30.708L24.4502 35.1669H6.66693C5.93055 35.1669 5.33359 34.57 5.33359 33.8336ZM33.3336 35.1669H26.4734L22.0016 30.2262L29.3336 22.8943L34.6669 28.2276V33.8336C34.6669 34.57 34.07 35.1669 33.3336 35.1669ZM17.2815 15.1669C17.2815 13.6654 18.4987 12.4482 20.0003 12.4482C21.5018 12.4482 22.719 13.6654 22.719 15.1669C22.719 16.6685 21.5018 17.8857 20.0003 17.8857C18.4987 17.8857 17.2815 16.6685 17.2815 15.1669ZM20.0003 10.9482C17.6703 10.9482 15.7815 12.837 15.7815 15.1669C15.7815 17.4969 17.6703 19.3857 20.0003 19.3857C22.3302 19.3857 24.219 17.4969 24.219 15.1669C24.219 12.837 22.3302 10.9482 20.0003 10.9482Z" fill="#F9FAFC"/>
</svg>
