<svg xmlns="http://www.w3.org/2000/svg" width="20" height="20" viewBox="0 0 20 20" fill="none">
<path d="M13.144 10.8092L12.2082 9.87328C12.3502 9.13182 12.1553 8.49934 11.6232 7.97584C11.0912 7.45234 10.4528 7.25149 9.70815 7.37328L8.77228 6.43741C8.96565 6.34766 9.16463 6.28302 9.36921 6.24349C9.57381 6.20396 9.78401 6.1842 9.99982 6.1842C10.9453 6.1842 11.7479 6.51406 12.4077 7.17378C13.0674 7.8335 13.3972 8.63611 13.3972 9.58161C13.3972 9.79742 13.3788 10.0076 13.3419 10.2122C13.3051 10.4168 13.2391 10.6158 13.144 10.8092ZM15.7947 13.4021L14.8748 12.5399C15.4026 12.1372 15.8748 11.6893 16.2915 11.1962C16.7082 10.7031 17.0554 10.1649 17.3332 9.58161C16.6387 8.17884 15.6352 7.06425 14.3227 6.23786C13.0102 5.41148 11.5693 4.99828 9.99982 4.99828C9.59704 4.99828 9.20468 5.02606 8.82273 5.08161C8.44079 5.13717 8.05537 5.2205 7.66648 5.33161L6.69536 4.36049C7.22526 4.15109 7.76559 3.99671 8.31634 3.89734C8.86707 3.79798 9.42823 3.7483 9.99982 3.7483C11.7904 3.7483 13.4352 4.21358 14.9341 5.14413C16.433 6.07469 17.5858 7.33377 18.3924 8.92136C18.448 9.02713 18.4883 9.1337 18.5134 9.24107C18.5385 9.34845 18.5511 9.46196 18.5511 9.58161C18.5511 9.70127 18.5407 9.81478 18.5198 9.92216C18.499 10.0295 18.4608 10.1361 18.4052 10.2419C18.1104 10.869 17.7402 11.4481 17.2947 11.979C16.8491 12.51 16.3492 12.9844 15.7947 13.4021ZM9.99982 15.4149C8.24555 15.4149 6.63766 14.9462 5.17613 14.0087C3.71459 13.0712 2.55273 11.8364 1.69055 10.3044C1.6211 10.1986 1.57036 10.0838 1.53832 9.95982C1.50626 9.83589 1.49023 9.70982 1.49023 9.58161C1.49023 9.45341 1.50412 9.32948 1.5319 9.20982C1.55968 9.09017 1.60829 8.97318 1.67773 8.85886C1.98757 8.29263 2.33853 7.75336 2.73063 7.24107C3.12273 6.72878 3.57358 6.26965 4.08319 5.86368L2.20178 3.96943C2.08639 3.8455 2.0295 3.69833 2.03111 3.52793C2.03271 3.35752 2.09387 3.21196 2.21459 3.09124C2.33531 2.97052 2.48168 2.91016 2.65369 2.91016C2.82569 2.91016 2.97205 2.97052 3.09278 3.09124L16.9069 16.9053C17.0222 17.0207 17.0834 17.1636 17.0903 17.334C17.0973 17.5044 17.0361 17.6542 16.9069 17.7835C16.7861 17.9042 16.6398 17.9646 16.4678 17.9646C16.2958 17.9646 16.1494 17.9042 16.0287 17.7835L13.096 14.8764C12.6045 15.0666 12.0994 15.2039 11.5808 15.2883C11.0621 15.3727 10.5351 15.4149 9.99982 15.4149ZM4.96138 6.74184C4.47313 7.11898 4.03429 7.54554 3.64486 8.02151C3.25543 8.49747 2.9293 9.0175 2.66648 9.58161C3.36093 10.9844 4.3644 12.099 5.6769 12.9254C6.9894 13.7518 8.43037 14.1649 9.99982 14.1649C10.3577 14.1649 10.71 14.1409 11.0567 14.0928C11.4034 14.0448 11.7477 13.9705 12.0896 13.8701L11.0351 12.7899C10.8663 12.8636 10.6977 12.9136 10.5295 12.9398C10.3612 12.9659 10.1847 12.979 9.99982 12.979C9.05432 12.979 8.25171 12.6492 7.59198 11.9894C6.93226 11.3297 6.6024 10.5271 6.6024 9.58161C6.6024 9.39678 6.61682 9.22023 6.64567 9.05197C6.67452 8.88369 6.72313 8.71515 6.7915 8.54634L4.96138 6.74184Z" fill="#1E1F20"/>
</svg>