<svg width="20" height="20" viewBox="0 0 20 20" fill="none" xmlns="http://www.w3.org/2000/svg">
<path d="M13.144 10.8111L12.2082 9.87523C12.3502 9.13378 12.1553 8.5013 11.6232 7.9778C11.0912 7.4543 10.4528 7.25344 9.70815 7.37523L8.77228 6.43936C8.96565 6.34961 9.16463 6.28497 9.36921 6.24544C9.57381 6.20591 9.78401 6.18615 9.99982 6.18615C10.9453 6.18615 11.7479 6.51601 12.4077 7.17573C13.0674 7.83546 13.3972 8.63807 13.3972 9.58357C13.3972 9.79937 13.3788 10.0096 13.3419 10.2142C13.3051 10.4188 13.2391 10.6177 13.144 10.8111ZM15.7947 13.4041L14.8748 12.5419C15.4026 12.1391 15.8748 11.6912 16.2915 11.1982C16.7082 10.7051 17.0554 10.1669 17.3332 9.58357C16.6387 8.18079 15.6352 7.06621 14.3227 6.23982C13.0102 5.41343 11.5693 5.00023 9.99982 5.00023C9.59704 5.00023 9.20468 5.02801 8.82273 5.08357C8.44079 5.13912 8.05537 5.22246 7.66648 5.33357L6.69536 4.36244C7.22526 4.15304 7.76559 3.99866 8.31634 3.8993C8.86707 3.79994 9.42823 3.75025 9.99982 3.75025C11.7904 3.75025 13.4352 4.21553 14.9341 5.14609C16.433 6.07664 17.5858 7.33572 18.3924 8.92332C18.448 9.02908 18.4883 9.13565 18.5134 9.24303C18.5385 9.3504 18.5511 9.46391 18.5511 9.58357C18.5511 9.70322 18.5407 9.81673 18.5198 9.92411C18.499 10.0315 18.4608 10.1381 18.4052 10.2438C18.1104 10.871 17.7402 11.45 17.2947 11.981C16.8491 12.512 16.3492 12.9863 15.7947 13.4041ZM9.99982 15.4169C8.24555 15.4169 6.63766 14.9481 5.17613 14.0106C3.71459 13.0731 2.55273 11.8384 1.69055 10.3063C1.6211 10.2006 1.57036 10.0857 1.53832 9.96178C1.50626 9.83785 1.49023 9.71178 1.49023 9.58357C1.49023 9.45536 1.50412 9.33143 1.5319 9.21178C1.55968 9.09212 1.60829 8.97514 1.67773 8.86082C1.98757 8.29458 2.33853 7.75532 2.73063 7.24303C3.12273 6.73073 3.57358 6.2716 4.08319 5.86563L2.20178 3.97138C2.08639 3.84745 2.0295 3.70028 2.03111 3.52988C2.03271 3.35948 2.09387 3.21391 2.21459 3.09319C2.33531 2.97247 2.48168 2.91211 2.65369 2.91211C2.82569 2.91211 2.97205 2.97247 3.09278 3.09319L16.9069 16.9073C17.0222 17.0227 17.0834 17.1655 17.0903 17.3359C17.0973 17.5063 17.0361 17.6562 16.9069 17.7855C16.7861 17.9062 16.6398 17.9665 16.4678 17.9665C16.2958 17.9665 16.1494 17.9062 16.0287 17.7855L13.096 14.8784C12.6045 15.0686 12.0994 15.2059 11.5808 15.2903C11.0621 15.3747 10.5351 15.4169 9.99982 15.4169ZM4.96138 6.7438C4.47313 7.12093 4.03429 7.54749 3.64486 8.02346C3.25543 8.49942 2.9293 9.01946 2.66648 9.58357C3.36093 10.9863 4.3644 12.1009 5.6769 12.9273C6.9894 13.7537 8.43037 14.1669 9.99982 14.1669C10.3577 14.1669 10.71 14.1429 11.0567 14.0948C11.4034 14.0467 11.7477 13.9725 12.0896 13.872L11.0351 12.7919C10.8663 12.8656 10.6977 12.9155 10.5295 12.9417C10.3612 12.9679 10.1847 12.981 9.99982 12.981C9.05432 12.981 8.25171 12.6511 7.59198 11.9914C6.93226 11.3317 6.6024 10.5291 6.6024 9.58357C6.6024 9.39873 6.61682 9.22219 6.64567 9.05392C6.67452 8.88564 6.72313 8.7171 6.7915 8.5483L4.96138 6.7438Z" fill="#1E1F20"/>
</svg>
