<svg width="212" height="235" viewBox="0 0 212 235" fill="none" xmlns="http://www.w3.org/2000/svg">
<g clip-path="url(#clip0_863_40281)">
<rect width="212" height="235" rx="5" fill="#F9FAFC"/>
<path d="M55.2 182.888H58.416V205.184H55.2V182.888ZM46.44 184.448C49.8 184.448 52.272 187.52 52.272 192.368C52.272 197.264 49.8 200.336 46.44 200.336C43.08 200.336 40.608 197.264 40.608 192.368C40.608 187.52 43.08 184.448 46.44 184.448ZM46.44 187.352C44.784 187.352 43.656 189.104 43.656 192.368C43.656 195.68 44.784 197.456 46.44 197.456C48.096 197.456 49.2 195.68 49.2 192.368C49.2 189.104 48.096 187.352 46.44 187.352ZM72.5501 188.816H78.2621V191.36H72.5501V188.816ZM77.4461 182.936H80.6381V199.328H77.4461V182.936ZM65.9261 202.208H81.1181V204.752H65.9261V202.208ZM65.9261 197.72H69.1421V203.672H65.9261V197.72ZM62.9741 184.376H66.1421V187.76H70.3661V184.376H73.4861V195.848H62.9741V184.376ZM66.1421 190.184V193.328H70.3661V190.184H66.1421ZM92.3483 185.384H95.1083V186.032C95.1083 189.944 91.9163 193.136 86.2763 193.904L85.1003 191.408C89.9963 190.808 92.3483 188.312 92.3483 186.032V185.384ZM93.2603 185.384H96.0203V186.032C96.0203 188.312 98.3723 190.808 103.268 191.408L102.116 193.904C96.4523 193.136 93.2603 189.944 93.2603 186.032V185.384ZM92.5163 197H95.6843V205.16H92.5163V197ZM84.1403 195.176H104.228V197.72H84.1403V195.176ZM85.9163 184.04H102.404V186.56H85.9163V184.04ZM127.013 182.936H130.229V198.896H127.013V182.936ZM115.421 202.208H130.781V204.752H115.421V202.208ZM115.421 197.288H118.613V203.24H115.421V197.288ZM118.133 184.328C121.541 184.328 124.157 186.68 124.157 189.968C124.157 193.232 121.541 195.608 118.133 195.608C114.725 195.608 112.085 193.232 112.085 189.968C112.085 186.68 114.725 184.328 118.133 184.328ZM118.133 187.088C116.477 187.088 115.205 188.144 115.205 189.968C115.205 191.768 116.477 192.824 118.133 192.824C119.765 192.824 121.037 191.768 121.037 189.968C121.037 188.144 119.765 187.088 118.133 187.088ZM149.139 182.912H152.355V205.136H149.139V182.912ZM142.587 185.216H145.755C145.755 192.008 143.451 197.576 135.555 201.392L133.899 198.848C140.283 195.776 142.587 191.744 142.587 185.792V185.216ZM135.075 185.216H144.099V187.736H135.075V185.216ZM161.484 199.976H181.596V202.568H161.484V199.976ZM169.908 195.056H173.1V200.576H169.908V195.056ZM163.572 184.544H179.388V195.464H163.572V184.544ZM176.268 187.088H166.716V192.944H176.268V187.088ZM198.802 182.936H202.018V195.488H198.802V182.936ZM187.234 196.496H202.018V204.896H187.234V196.496ZM198.874 198.992H190.354V202.376H198.874V198.992ZM189.922 183.944C193.378 183.944 195.946 186.152 195.946 189.272C195.946 192.368 193.378 194.6 189.922 194.6C186.466 194.6 183.874 192.368 183.874 189.272C183.874 186.152 186.466 183.944 189.922 183.944ZM189.922 186.584C188.242 186.584 186.994 187.568 186.994 189.272C186.994 190.952 188.242 191.936 189.922 191.936C191.602 191.936 192.826 190.952 192.826 189.272C192.826 187.568 191.602 186.584 189.922 186.584Z" fill="#1E1F20"/>
<path d="M158.693 36.004H159.659C162.011 36.004 163.523 35.948 165.287 35.612L165.413 36.564C163.593 36.9 162.067 36.984 159.659 36.984H158.693V36.004ZM158.693 28.64H164.447V29.592H159.841V36.368H158.693V28.64ZM167.331 27.436H168.493V40.12H167.331V27.436ZM163.705 32.014H167.807V32.98H163.705V32.014ZM170.942 37.516H182.408V38.482H170.942V37.516ZM176.066 34.492H177.228V37.796H176.066V34.492ZM172.286 28.332H173.434V30.586H179.888V28.332H181.036V34.8H172.286V28.332ZM173.434 31.524V33.848H179.888V31.524H173.434ZM193.033 27.436H194.195V40.092H193.033V27.436ZM189.323 28.794H190.471C190.471 32.462 188.819 35.668 184.591 37.74L183.975 36.802C187.629 35.038 189.323 32.35 189.323 28.99V28.794ZM184.549 28.794H189.827V29.746H184.549V28.794Z" fill="#5E5E60"/>
<g opacity="0.1">
<path d="M19.0588 -38.4934L6.6353 -103M41.3177 -55.5915L49.3412 -87.9744M41.3177 106.323L58.4 190M19.0588 131.97L13.6235 166.943M92.5647 4.43703L142 -21.3952M-44.0941 4.43703L-100 -30.7215M-68.4235 17.4642H-94.8235M-31.6706 81.9708L-79.5529 122.126M98 69.1287L136.047 88.4659M26.3759 4.43703L66.4023 -30.7215L54.4646 24.1258L102.918 37.8376L54.4646 51.5494L66.4023 88.4659L30.2381 69.1287L-4.87281 116.944L-0.659491 59.9875L-68.4235 48.0336L-10.9647 24.1258L-22.0771 -27.9088L26.3759 4.43703Z" stroke="#F64A19" stroke-width="20"/>
</g>
<path d="M94.5385 166.583C94.5385 166.583 93.5093 153.9 88.0031 149.195C76.8753 139.687 57.848 171.635 57.848 171.635C57.848 171.635 56.9221 157.095 50.122 153.558C38.0563 147.283 21.0336 184.374 21.0336 184.374M94.5385 166.583L103.066 154.963M94.5385 166.583L82.9722 158.071" stroke="black" stroke-width="3"/>
</g>
<rect x="0.5" y="0.5" width="211" height="234" rx="4.5" stroke="#DDDEE0"/>
<defs>
<clipPath id="clip0_863_40281">
<rect width="212" height="235" rx="5" fill="white"/>
</clipPath>
</defs>
</svg>
